<svg xmlns="http://www.w3.org/2000/svg" viewBox="0 0 89.32 89.33"><defs><style>.fc6d9396-220b-44c6-89ce-d46643f12d83{fill:#f66663;}</style></defs><g id="ff68eee8-55df-4f57-94a1-cf015f72121d" data-name="Слой 2"><g id="f18b82ef-7dd9-441a-ba2c-9bb3575a77ee" data-name="Слой 1"><path class="fc6d9396-220b-44c6-89ce-d46643f12d83" d="M87.38,49.37l-38,38a6.64,6.64,0,0,1-9.4,0l-38-38a6.66,6.66,0,0,1,0-9.4L28.25,13.66l10.41,10.4a6.53,6.53,0,0,0-.46,2.43,6.72,6.72,0,0,0,3.9,6.1V57.8a6.72,6.72,0,1,0,5.74.05V33.24l9.4,9.4a6.61,6.61,0,0,0-.51,2.56,6.73,6.73,0,1,0,6.73-6.73,6.51,6.51,0,0,0-2.22.38l-10-10a6.72,6.72,0,0,0-8.64-8.64L32.15,9.76,40,2a6.64,6.64,0,0,1,9.4,0l38,38A6.66,6.66,0,0,1,87.38,49.37Z"/></g></g></svg>