<svg xmlns="http://www.w3.org/2000/svg" viewBox="0 0 96.95 86.09"><defs><style>.bdff4515-3ce2-4ca9-a0f0-164b138e6d58{fill:#f66663;}</style></defs><g id="ab6f7abc-9fd6-4a6f-914e-2496f883ee09" data-name="Слой 2"><g id="bf2daec2-b863-4c00-98c0-9fbfe92a0f14" data-name="Слой 1"><path class="bdff4515-3ce2-4ca9-a0f0-164b138e6d58" d="M33.47,53.67l3-5.78a21.28,21.28,0,0,1,5.81-7L88.82,4.53a26.57,26.57,0,0,1,3.46-2.29L96.17.07a.52.52,0,0,1,.71.72L95.25,3.57a26.15,26.15,0,0,1-2.82,3.94L52.22,54.26a21.35,21.35,0,0,1-8.67,6.05l-3.26,1.21-1.72-2.93a11.26,11.26,0,0,0-2.88-3.23Z"/><path class="bdff4515-3ce2-4ca9-a0f0-164b138e6d58" d="M29.21,56.69c1.54.39,3,1.64,4.83,4.12a20.74,20.74,0,0,1,2.84,5c.22.71-.42,2.84-1.85,6.75S28.92,83.77,21.25,85.33,10,85.69,5.4,84.9,0,83.27,0,83.27s2.77-.14,7-4.55,6-10.87,8.24-14.35,4.26-5.55,6.75-6.61S27.45,56.25,29.21,56.69Z"/></g></g></svg>