<svg xmlns="http://www.w3.org/2000/svg" viewBox="0 0 125.34 92.62"><defs><style>.b76536c2-8a1d-49b1-88c6-f6bcb47e1610{fill:#f66663;}</style></defs><g id="a60602d9-1e43-43a2-bb07-acd71c1e9134" data-name="Слой 2"><g id="ba533e8b-8b36-44df-b9a6-898ffa5dd7f0" data-name="Слой 1"><path class="b76536c2-8a1d-49b1-88c6-f6bcb47e1610" d="M38.76,73.65,12.46,47.34a1.07,1.07,0,0,1,0-1.52l26.3-26.29a1.89,1.89,0,0,0,0-2.66l-3.42-3.41a1.86,1.86,0,0,0-2.65,0L.31,45.83a1.09,1.09,0,0,0,0,1.52l5.32,5.31h0L32.69,79.71a1.87,1.87,0,0,0,2.66,0l3.41-3.41A1.86,1.86,0,0,0,38.76,73.65Z"/><path class="b76536c2-8a1d-49b1-88c6-f6bcb47e1610" d="M86.57,73.65l26.31-26.31a1.07,1.07,0,0,0,0-1.52L86.58,19.53a1.89,1.89,0,0,1,0-2.66L90,13.46a1.87,1.87,0,0,1,2.66,0L125,45.83a1.07,1.07,0,0,1,0,1.52l-5.31,5.31h0L92.64,79.71a1.86,1.86,0,0,1-2.65,0L86.57,76.3A1.88,1.88,0,0,1,86.57,73.65Z"/><rect class="b76536c2-8a1d-49b1-88c6-f6bcb47e1610" x="57.95" y="-1.04" width="9.08" height="94.7" rx="1.86" transform="translate(15.29 -15.51) rotate(16.1)"/></g></g></svg>