<svg xmlns="http://www.w3.org/2000/svg" viewBox="0 0 74.21 72.36"><defs><style>.b3e8e67e-977f-4498-8fb3-33f0b6379a63{fill:#f66663;}</style></defs><g id="ba171213-7a6e-4515-842c-9ea9a96238e0" data-name="Слой 2"><g id="bc7fe47a-6b2c-49c1-a676-4d59e1bd8f09" data-name="Слой 1"><path class="b3e8e67e-977f-4498-8fb3-33f0b6379a63" d="M37.11,29v7.16A7.16,7.16,0,0,1,44.27,29Zm24-29H13.08A13.09,13.09,0,0,0,0,13.09V59.28A13.08,13.08,0,0,0,13.08,72.36H61.13A13.08,13.08,0,0,0,74.21,59.28V13.09A13.08,13.08,0,0,0,61.13,0ZM49.33,31.12a7.16,7.16,0,1,1-12.22,5.06V50.5A7.16,7.16,0,1,1,30,43.34,7.16,7.16,0,1,1,30,29a7.16,7.16,0,1,1,0-14.31H44.27a7.16,7.16,0,0,1,0,14.31A7.12,7.12,0,0,1,49.33,31.12ZM37.11,36.18A7.16,7.16,0,0,1,44.27,29H37.11Z"/></g></g></svg>