<svg xmlns="http://www.w3.org/2000/svg" viewBox="0 0 84.95 84.95"><defs><style>.a89fe399-5baf-4e2b-90f8-6a467c222ce5{fill:#f66663;}</style></defs><g id="a7dc9957-ad11-4a48-876b-73a114a4ea73" data-name="Слой 2"><g id="bf3e146b-858a-4285-ba19-4844a8ca95a6" data-name="Слой 1"><path class="a89fe399-5baf-4e2b-90f8-6a467c222ce5" d="M35.48,33.47a4.6,4.6,0,0,0-1.93-1.95,5.93,5.93,0,0,0-2.78-.63,5.85,5.85,0,0,0-2.74.63,4.6,4.6,0,0,0-1.93,1.95,7.55,7.55,0,0,0-.76,3.44c0,1.26-.05,2.47-.05,3.64s0,2.41.05,3.72a6.35,6.35,0,0,0,1.59,4.58,5.32,5.32,0,0,0,3.84,1.44,5.37,5.37,0,0,0,3.88-1.44,6.31,6.31,0,0,0,1.6-4.58c.06-1.31.09-2.56.09-3.72s0-2.38-.09-3.64A7.54,7.54,0,0,0,35.48,33.47Z"/><path class="a89fe399-5baf-4e2b-90f8-6a467c222ce5" d="M16.58,4.08,4.08,16.58A14,14,0,0,0,0,26.44V85H58.51a13.94,13.94,0,0,0,9.85-4.08l12.5-12.5A13.92,13.92,0,0,0,85,58.51V0H26.44A14,14,0,0,0,16.58,4.08Zm28,54.85a.86.86,0,0,1-.67.3H38a1.46,1.46,0,0,1-1.1-.39,8.11,8.11,0,0,1-.61-.65l-1.52-2a12.61,12.61,0,0,1-4,.59,17.46,17.46,0,0,1-7.16-1.35,10.57,10.57,0,0,1-4.76-4.07A13.18,13.18,0,0,1,17,44.54c0-1.28,0-2.57,0-3.86s0-2.59,0-3.91A13.29,13.29,0,0,1,18.87,30a11,11,0,0,1,4.8-4.15,16.94,16.94,0,0,1,7.1-1.39,17.07,17.07,0,0,1,7.14,1.39A10.91,10.91,0,0,1,42.71,30a13.29,13.29,0,0,1,1.89,6.8c.06,1.32.09,2.62.09,3.91s0,2.58-.09,3.86c-.18,3.71-1.26,6.59-3.23,8.62l3.27,4.67a.49.49,0,0,1,.09.18.86.86,0,0,1,.05.27A.78.78,0,0,1,44.55,58.93Zm22.14-3.75a1.08,1.08,0,0,1-1.12,1.13H61.39a12.3,12.3,0,0,1-5-.92,6.82,6.82,0,0,1-3.21-2.88,10,10,0,0,1-1.12-5V38.84H48.59a1.19,1.19,0,0,1-.83-.31,1.07,1.07,0,0,1-.33-.81V34.08a1.07,1.07,0,0,1,.33-.81,1.19,1.19,0,0,1,.83-.31H52.1V25.55a1.07,1.07,0,0,1,.33-.81,1.13,1.13,0,0,1,.79-.31h5.21a1.06,1.06,0,0,1,1.12,1.12V33h5.61a1.08,1.08,0,0,1,1.13,1.12v3.64a1.08,1.08,0,0,1-1.13,1.12H59.55v8a4.5,4.5,0,0,0,.58,2.43,2.18,2.18,0,0,0,2,.9h3.46a1.06,1.06,0,0,1,1.12,1.12Z"/></g></g></svg>