<svg xmlns="http://www.w3.org/2000/svg" viewBox="0 0 74.21 72.36"><defs><style>.a34a9721-ae48-4a86-b254-c97bb4a02137{fill:#f66663;}</style></defs><g id="a3d5a292-4cd9-49e0-9fc9-008f652b5268" data-name="Слой 2"><g id="e6123722-2281-4696-9707-15a0e1d17795" data-name="Слой 1"><path class="a34a9721-ae48-4a86-b254-c97bb4a02137" d="M29.17,27.38a4.44,4.44,0,0,1,1,2.95A3.88,3.88,0,0,1,29,33.42a4.72,4.72,0,0,1-3.16,1H20.46V26.19h5.39A4.16,4.16,0,0,1,29.17,27.38Z"/><path class="a34a9721-ae48-4a86-b254-c97bb4a02137" d="M61.13,0H13.08A13.09,13.09,0,0,0,0,13.09V59.28A13.08,13.08,0,0,0,13.08,72.36H61.13A13.08,13.08,0,0,0,74.21,59.28V13.09A13.08,13.08,0,0,0,61.13,0Zm-24,36.27a9.27,9.27,0,0,1-4.42,3.41,18.35,18.35,0,0,1-6.65,1.1H20.6V50.87a1.1,1.1,0,0,1-.34.83,1.24,1.24,0,0,1-.86.32H13.19A1.1,1.1,0,0,1,12,50.87V20.94a1.1,1.1,0,0,1,1.15-1.15H26.08A17.29,17.29,0,0,1,32.73,21a9.6,9.6,0,0,1,4.42,3.52,10.39,10.39,0,0,1,1.59,5.94A10,10,0,0,1,37.15,36.27ZM62.66,48.89a8.33,8.33,0,0,1-3.89,2.64,18.24,18.24,0,0,1-6.26.95,16.75,16.75,0,0,1-5.09-.67A11.9,11.9,0,0,1,44,50.18a7.63,7.63,0,0,1-1.95-2,4,4,0,0,1-.69-1.77,1,1,0,0,1,.32-.85,1.15,1.15,0,0,1,.78-.35h5.25a.52.52,0,0,1,.23,0,2,2,0,0,1,.28.18,8.44,8.44,0,0,1,1.2.81,6.21,6.21,0,0,0,1.38.85,4.32,4.32,0,0,0,1.88.37A4.25,4.25,0,0,0,54.86,47a1.64,1.64,0,0,0,.87-1.52,1.8,1.8,0,0,0-.41-1.22,4.28,4.28,0,0,0-1.68-.94,25.19,25.19,0,0,0-3.8-.92,18.84,18.84,0,0,1-4.19-1.45,6.9,6.9,0,0,1-2.76-2.35,6.17,6.17,0,0,1-1-3.52,6.09,6.09,0,0,1,1.2-3.55,8.65,8.65,0,0,1,3.5-2.78,13.25,13.25,0,0,1,5.66-1.09,15.2,15.2,0,0,1,4.63.63,11.84,11.84,0,0,1,3.31,1.58,8.29,8.29,0,0,1,2.05,2A3.76,3.76,0,0,1,63,33.65a1.08,1.08,0,0,1-1,1.15H57.21a1.16,1.16,0,0,1-.37-.07,1.91,1.91,0,0,1-.32-.16,6,6,0,0,1-1.11-.74A6.81,6.81,0,0,0,54.12,33a4.15,4.15,0,0,0-1.84-.37,3,3,0,0,0-1.93.56,1.73,1.73,0,0,0-.69,1.42,1.79,1.79,0,0,0,.39,1.11,3.42,3.42,0,0,0,1.61.92,31.76,31.76,0,0,0,3.8.92,14.46,14.46,0,0,1,5.06,1.63,6.88,6.88,0,0,1,2.67,2.63A6.75,6.75,0,0,1,64,45,6.23,6.23,0,0,1,62.66,48.89Z"/></g></g></svg>