<svg xmlns="http://www.w3.org/2000/svg" viewBox="0 0 74.21 72.35"><defs><style>.a49b00bd-0282-4046-aff6-3a5872b42168{fill:#f66663;}</style></defs><g id="ef094b27-62e2-4e09-aa6f-931205d6d11c" data-name="Слой 2"><g id="f53760df-8612-40b4-8c2a-63d503183159" data-name="Слой 1"><polygon class="a49b00bd-0282-4046-aff6-3a5872b42168" points="30.48 26.88 34.82 39.08 26.23 39.08 30.48 26.88"/><path class="a49b00bd-0282-4046-aff6-3a5872b42168" d="M61.13,0H13.08A13.08,13.08,0,0,0,0,13.08V59.27A13.08,13.08,0,0,0,13.08,72.35H61.13A13.08,13.08,0,0,0,74.21,59.27V13.08A13.07,13.07,0,0,0,61.13,0ZM46.35,51.12a1,1,0,0,1-.71.3H40a1.42,1.42,0,0,1-1-.35,1.74,1.74,0,0,1-.44-.62l-1.8-4.72H24.33l-1.75,4.72a2.11,2.11,0,0,1-.42.62,1.49,1.49,0,0,1-1.11.35H15.37a.92.92,0,0,1-.67-.3.94.94,0,0,1-.3-.67,1.76,1.76,0,0,1,0-.42L25.3,20.36a1.85,1.85,0,0,1,.58-.9,1.77,1.77,0,0,1,1.22-.39h6.84a1.78,1.78,0,0,1,1.23.39,1.92,1.92,0,0,1,.58.9L46.56,50a.93.93,0,0,1,.09.42A.94.94,0,0,1,46.35,51.12Zm11.21-.86a1.08,1.08,0,0,1-.35.83,1.13,1.13,0,0,1-.81.33H51a1.13,1.13,0,0,1-1.16-1.16V28.54a1.12,1.12,0,0,1,.33-.83,1.09,1.09,0,0,1,.83-.32H56.4a1.12,1.12,0,0,1,.81.32,1.09,1.09,0,0,1,.35.83Zm0-27.49a1.1,1.1,0,0,1-.34.83,1.24,1.24,0,0,1-.86.32H50.9a1.15,1.15,0,0,1-.83-.32,1.16,1.16,0,0,1-.32-.83V18.65a1.21,1.21,0,0,1,.32-.85,1.09,1.09,0,0,1,.83-.35h5.5a1.18,1.18,0,0,1,.86.35,1.15,1.15,0,0,1,.34.85Z"/></g></g></svg>