<svg xmlns="http://www.w3.org/2000/svg" viewBox="0 0 81.97 81.43"><defs><style>.b6b62eee-1fd5-45ac-98ab-5cc7a3107f8d{fill:#f66663;}</style></defs><g id="be0c50c4-1a6f-4417-a1a2-f87dc014810e" data-name="Слой 2"><g id="e3e54c60-e994-4aed-823f-f7995f17a594" data-name="Слой 1"><path class="b6b62eee-1fd5-45ac-98ab-5cc7a3107f8d" d="M78.78,8.12,61,.28a3.35,3.35,0,0,0-3.55.56L23.79,31,10.34,20.63a3.29,3.29,0,0,0-4.2.14l-5,4.43a3.31,3.31,0,0,0,0,4.94L12.91,40.71,1.1,51.28a3.32,3.32,0,0,0,0,4.95l5,4.43a3.29,3.29,0,0,0,4.2.14L23.79,50.44,57.48,80.59a3.35,3.35,0,0,0,3.55.56l17.75-7.84.54-.34A5.6,5.6,0,0,0,82,68.2v-55A5.61,5.61,0,0,0,78.78,8.12ZM36.44,40.72,61.31,21.57V59.86Z"/></g></g></svg>