<svg xmlns="http://www.w3.org/2000/svg" viewBox="0 0 88.06 88.39"><defs><style>.ae785846-cd97-41f6-b10b-c34c2b9e35c5{fill:#f66663;}</style></defs><g id="b4f68c54-8c00-4ccf-8dde-7b2d54cd6cd6" data-name="Слой 2"><g id="a3685916-4466-4305-a126-32dd9748fa56" data-name="Слой 1"><polygon class="ae785846-cd97-41f6-b10b-c34c2b9e35c5" points="78.58 40.4 88.06 58.26 72.43 67.32 72.43 16.07 15.89 16.07 15.89 72.62 63.58 72.62 60.49 88.39 11.72 79.69 0 9.49 21.99 0 35.94 8.82 49 1.78 52.79 3.35 56.48 0 76.56 2.23 88.06 30.14 78.58 40.4"/><path class="ae785846-cd97-41f6-b10b-c34c2b9e35c5" d="M17.23,18.08V70.61a.67.67,0,0,0,.67.67H70.43a.67.67,0,0,0,.67-.67V18.08a.67.67,0,0,0-.67-.67H17.9A.67.67,0,0,0,17.23,18.08Zm25.35,47H21.71V61.35H42.58Zm3-40.44L42,45.59a1.43,1.43,0,0,1-.39.76,1.24,1.24,0,0,1-.89.32H37.58a1.18,1.18,0,0,1-.85-.29,1.73,1.73,0,0,1-.39-.56L33,36.46l-3.3,9.36a1.85,1.85,0,0,1-.38.56,1.13,1.13,0,0,1-.83.29H25.41a1.23,1.23,0,0,1-.89-.32,1.43,1.43,0,0,1-.39-.76L20.56,24.68a.35.35,0,0,1,0-.13v-.1a.74.74,0,0,1,.69-.69h4.05q.93,0,1,.72l2.13,12.8,2.36-7.56a2.27,2.27,0,0,1,.32-.58.88.88,0,0,1,.76-.31h2.35a.89.89,0,0,1,.78.31,1.54,1.54,0,0,1,.3.58l2.36,7.52,2.12-12.76q.1-.72,1-.72h4.06a.63.63,0,0,1,.49.22.67.67,0,0,1,.2.47Zm20.5,19a7.86,7.86,0,0,1-3.48,2.47,14.44,14.44,0,0,1-5.11.85A13.8,13.8,0,0,1,52,46.07a7.93,7.93,0,0,1-3.27-2.44,5.62,5.62,0,0,1-1.17-3.21.62.62,0,0,1,.21-.47.7.7,0,0,1,.5-.22h4.13a1.34,1.34,0,0,1,.7.16,2,2,0,0,1,.45.43,3.67,3.67,0,0,0,.73,1,3.46,3.46,0,0,0,1.25.74,5.79,5.79,0,0,0,1.91.28,5.57,5.57,0,0,0,2.86-.59,1.8,1.8,0,0,0,1-1.61,1.53,1.53,0,0,0-.53-1.19,4.42,4.42,0,0,0-1.68-.85A30,30,0,0,0,56,37.28a19.33,19.33,0,0,1-4.25-1.36,6.57,6.57,0,0,1-2.66-2.19,6.44,6.44,0,0,1,.21-7,7.42,7.42,0,0,1,3.16-2.45,12,12,0,0,1,4.81-.89,12.39,12.39,0,0,1,4,.59,8.89,8.89,0,0,1,2.89,1.58,7.39,7.39,0,0,1,1.79,2.07,4.77,4.77,0,0,1,.64,2.14.69.69,0,0,1-.2.48.64.64,0,0,1-.49.21H61.54a1.32,1.32,0,0,1-.62-.13,1.22,1.22,0,0,1-.46-.42,2.22,2.22,0,0,0-1-1.26,4,4,0,0,0-2.18-.55,4.06,4.06,0,0,0-2.24.52,1.68,1.68,0,0,0-.8,1.55,1.66,1.66,0,0,0,.44,1.15,3.62,3.62,0,0,0,1.47.84A25.21,25.21,0,0,0,59,33a21,21,0,0,1,4.8,1.39A6.18,6.18,0,0,1,66,43.68Z"/></g></g></svg>